<svg width="14" height="12" viewBox="0 0 14 12" fill="none" xmlns="http://www.w3.org/2000/svg">
<path d="M13.5517 0.656871C13.4693 0.5095 13.3585 0.379865 13.2258 0.275409C12.9597 0.0655706 12.6214 -0.0304014 12.2848 0.00846679C11.9481 0.047335 11.6405 0.217883 11.4293 0.482838L5.0864 8.48341C5.01671 8.57214 4.91495 8.62995 4.80304 8.64438C4.69114 8.65881 4.57804 8.62871 4.48812 8.56055L2.07098 6.6937C1.80091 6.48546 1.45918 6.39304 1.12098 6.43676C0.782768 6.48049 0.47578 6.65677 0.267547 6.92684C0.0593145 7.1969 -0.0331058 7.53863 0.010617 7.87684C0.0543398 8.21505 0.230625 8.52203 0.500691 8.73027L3.56412 11.0943C3.79701 11.2812 4.06644 11.4174 4.35509 11.4941C4.64375 11.5707 4.94525 11.5861 5.24021 11.5393C5.53518 11.4925 5.81708 11.3845 6.06782 11.2222C6.31855 11.0599 6.53257 10.847 6.69612 10.5971L13.4367 2.08055C13.5417 1.94833 13.6196 1.79666 13.6659 1.63425C13.7121 1.47185 13.7259 1.3019 13.7063 1.13418C13.6867 0.966448 13.6342 0.804242 13.5517 0.656871Z" fill="white"/>
</svg>
