<svg width="8" height="8" viewBox="0 0 8 8" fill="none" xmlns="http://www.w3.org/2000/svg">
<path d="M0.646039 0.646008C0.692485 0.599445 0.74766 0.562502 0.808405 0.537296C0.869151 0.512089 0.934272 0.499115 1.00004 0.499115C1.06581 0.499115 1.13093 0.512089 1.19167 0.537296C1.25242 0.562502 1.30759 0.599445 1.35404 0.646008L4.00004 3.29301L6.64604 0.646008C6.69253 0.599521 6.74772 0.562644 6.80846 0.537485C6.86919 0.512326 6.9343 0.499377 7.00004 0.499377C7.06578 0.499377 7.13088 0.512326 7.19162 0.537485C7.25236 0.562644 7.30755 0.599521 7.35404 0.646008C7.40053 0.692496 7.4374 0.747686 7.46256 0.808425C7.48772 0.869164 7.50067 0.934265 7.50067 1.00001C7.50067 1.06575 7.48772 1.13085 7.46256 1.19159C7.4374 1.25233 7.40053 1.30752 7.35404 1.35401L4.70704 4.00001L7.35404 6.64601C7.40053 6.6925 7.4374 6.74769 7.46256 6.80842C7.48772 6.86916 7.50067 6.93426 7.50067 7.00001C7.50067 7.06575 7.48772 7.13085 7.46256 7.19159C7.4374 7.25233 7.40053 7.30752 7.35404 7.35401C7.30755 7.4005 7.25236 7.43737 7.19162 7.46253C7.13088 7.48769 7.06578 7.50064 7.00004 7.50064C6.9343 7.50064 6.86919 7.48769 6.80846 7.46253C6.74772 7.43737 6.69253 7.4005 6.64604 7.35401L4.00004 4.70701L1.35404 7.35401C1.30755 7.4005 1.25236 7.43737 1.19162 7.46253C1.13088 7.48769 1.06578 7.50064 1.00004 7.50064C0.934295 7.50064 0.869195 7.48769 0.808455 7.46253C0.747716 7.43737 0.692527 7.4005 0.646039 7.35401C0.599551 7.30752 0.562675 7.25233 0.537516 7.19159C0.512357 7.13085 0.499407 7.06575 0.499407 7.00001C0.499407 6.93426 0.512357 6.86916 0.537516 6.80842C0.562675 6.74769 0.599551 6.6925 0.646039 6.64601L3.29304 4.00001L0.646039 1.35401C0.599476 1.30756 0.562533 1.25239 0.537326 1.19164C0.51212 1.1309 0.499146 1.06578 0.499146 1.00001C0.499146 0.934241 0.51212 0.86912 0.537326 0.808375C0.562533 0.74763 0.599476 0.692454 0.646039 0.646008Z" fill="#F2F2F3"/>
</svg>
